<?xml version="1.0" encoding="UTF-8"?>
<svg width="250px" height="147px" viewBox="0 0 250 147" version="1.1" xmlns="http://www.w3.org/2000/svg" xmlns:xlink="http://www.w3.org/1999/xlink">
    <!-- Generator: Sketch 52.5 (67469) - http://www.bohemiancoding.com/sketch -->
    <title>Untitled</title>
    <desc>Created with Sketch.</desc>
    <g id="Page-1" stroke="none" stroke-width="1" fill="none" fill-rule="evenodd">
        <g id="Group">
            <g id="logo_VR" transform="translate(0.000000, 119.000000)" fill="#8D0D1A">
                <polygon id="Path" points="49.5395 10.0061 44.8618 10.0061 44.8618 7.64907 48.6485 7.64907 48.6485 5.7368 44.8618 5.7368 44.8618 3.64665 49.5395 3.64665 49.5395 1.68991 42.8125 1.68991 42.8125 11.9183 49.5395 11.9183"></polygon>
                <polygon id="Path" points="62.1471 11.9183 64.1964 11.9183 64.1964 3.60218 66.8694 3.60218 66.8694 1.68991 59.4741 1.68991 59.4741 3.60218 62.1471 3.60218"></polygon>
                <polygon id="Path" points="86.8721 11.9183 93.5991 11.9183 93.5991 10.0061 88.9214 10.0061 88.9214 7.64907 92.7081 7.64907 92.7081 5.7368 88.9214 5.7368 88.9214 3.64665 93.5991 3.64665 93.5991 1.68991 86.8721 1.68991"></polygon>
                <polygon id="Path" points="94.8911 3.60218 97.5641 3.60218 97.5641 11.9183 99.6134 11.9183 99.6134 3.60218 102.286 3.60218 102.286 1.68991 94.8911 1.68991"></polygon>
                <polygon id="Path" points="114.092 1.68991 111.999 1.68991 111.999 11.9183 114.092 11.9183"></polygon>
                <polygon id="Path" points="85.0012 15.3426 81.0808 22.1023 81.0808 15.3426 79.1206 15.3426 79.1206 25.571 79.1652 25.571 81.0808 25.571 85.0012 18.8559 85.0012 25.571 87.0059 25.571 87.0059 15.3426"></polygon>
                <polygon id="Path" points="75.4675 15.3426 71.5471 22.1023 71.5471 15.3426 69.5869 15.3426 69.5869 25.571 71.5471 25.571 75.4675 18.8559 75.4675 25.571 77.4722 25.571 77.4722 15.3426 77.4277 15.3426"></polygon>
                <path d="M18.8446,1.24522 L15.9043,8.04934 L25.8835,8.62747 C24.5915,5.33659 22.0522,2.66831 18.8446,1.24522 Z" id="Path"></path>
                <path d="M15.5924,0.222357 C14.7905,0.0889427 13.9886,0 13.1867,0 C6.86067,0 1.55924,4.26925 0,10.095 L14.9687,8.00485 L15.5924,0.222357 Z" id="Path"></path>
                <path d="M15.4143,8.84981 L1.11377,20.0121 C3.38581,24.3258 7.97444,27.3054 13.1868,27.3054 C20.7157,27.3054 26.8636,21.2128 26.8636,13.6527 C26.8636,13.4748 26.8636,13.2969 26.8636,13.0746 L15.4143,8.84981 Z" id="Path"></path>
                <path d="M38.8477,9.56135 C38.8477,9.87265 38.6695,10.0505 38.3576,10.0505 L35.6401,10.0505 L35.6401,7.64908 L38.1794,7.64908 C38.5804,7.64908 38.8477,7.69355 38.8477,8.0938 L38.8477,9.56135 Z M35.6401,3.60219 L38.2685,3.60219 C38.5804,3.60219 38.7586,3.78007 38.7586,4.09137 L38.7586,5.2921 C38.7586,5.69234 38.6249,5.78128 38.2685,5.78128 L35.6401,5.78128 L35.6401,3.60219 Z M39.9169,6.71518 C40.5851,6.31494 40.8079,5.78128 40.8079,5.20316 L40.8079,3.7356 C40.8079,2.53487 39.9614,1.73439 38.8031,1.73439 L33.5908,1.73439 L33.5908,11.9628 L38.8922,11.9628 C40.0951,11.9628 40.897,11.1178 40.897,9.96159 L40.897,8.27168 C40.897,7.64908 40.6297,7.02648 39.9169,6.71518 Z" id="Shape" fill-rule="nonzero"></path>
                <polygon id="Path" points="49.5395 10.0061 44.8618 10.0061 44.8618 7.64907 48.6485 7.64907 48.6485 5.7368 44.8618 5.7368 44.8618 3.64665 49.5395 3.64665 49.5395 1.68991 42.8125 1.68991 42.8125 11.9183 49.5395 11.9183"></polygon>
                <path d="M53.3706,3.64666 L56.0436,3.64666 C56.3554,3.64666 56.5336,3.82454 56.5336,4.13584 L56.5336,5.9147 C56.5336,6.226 56.3554,6.40388 56.0436,6.40388 L53.3706,6.40388 L53.3706,3.64666 Z M53.3706,8.31615 L56.5782,8.31615 C57.781,8.31615 58.5829,7.4712 58.5829,6.31494 L58.5829,3.7356 C58.5829,2.53487 57.7365,1.73439 56.5782,1.73439 L51.3213,1.73439 L51.3213,11.9628 L53.3706,11.9628 L53.3706,8.31615 Z" id="Shape" fill-rule="nonzero"></path>
                <polygon id="Path" points="62.1471 11.9183 64.1964 11.9183 64.1964 3.60218 66.8694 3.60218 66.8694 1.68991 59.4741 1.68991 59.4741 3.60218 62.1471 3.60218"></polygon>
                <path d="M70.0771,4.04689 C70.0771,3.73559 70.2553,3.5577 70.5672,3.5577 L72.9729,3.5577 C73.2847,3.5577 73.4629,3.73559 73.4629,4.04689 L73.4629,9.56133 C73.4629,9.87263 73.2847,10.0505 72.9729,10.0505 L70.5672,10.0505 C70.2553,10.0505 70.0771,9.87263 70.0771,9.56133 L70.0771,4.04689 Z M73.4629,12.0073 C74.6658,12.0073 75.4677,11.1623 75.4677,10.006 L75.4677,3.64664 C75.4677,2.44592 74.6212,1.64543 73.4629,1.64543 L70.0326,1.64543 C68.8297,1.64543 68.0278,2.49039 68.0278,3.64664 L68.0278,9.96158 C68.0278,11.1623 68.8743,11.9628 70.0326,11.9628 L73.4629,11.9628 L73.4629,12.0073 Z" id="Shape" fill-rule="nonzero"></path>
                <polygon id="Path" points="86.8721 11.9183 93.5991 11.9183 93.5991 10.0061 88.9214 10.0061 88.9214 7.64907 92.7081 7.64907 92.7081 5.7368 88.9214 5.7368 88.9214 3.64665 93.5991 3.64665 93.5991 1.68991 86.8721 1.68991"></polygon>
                <polygon id="Path" points="94.8911 3.60218 97.5641 3.60218 97.5641 11.9183 99.6134 11.9183 99.6134 3.60218 102.286 3.60218 102.286 1.68991 94.8911 1.68991"></polygon>
                <path d="M79.9672,9.02769 C80.0563,7.69354 80.3682,4.31372 80.4127,3.60218 L83.0857,3.60218 L83.0857,11.9183 L85.135,11.9183 L85.135,3.60218 L85.135,3.42429 L85.135,1.68991 L78.4971,1.68991 L78.3189,3.60218 C78.2743,4.26925 78.007,7.15989 77.9625,7.82696 C77.9179,8.44956 77.7843,9.25004 77.7397,9.69476 C77.6952,9.91711 77.5615,10.0505 77.3388,10.0505 L76.626,10.0505 L76.626,11.8739 C76.626,11.8739 76.7151,11.8739 77.2497,11.8739 C79.299,11.9183 79.8336,10.4952 79.9672,9.02769 Z" id="Path"></path>
                <path d="M38.8031,19.5674 C38.8031,19.8787 38.625,20.0566 38.3131,20.0566 L35.6401,20.0566 L35.6401,17.2994 L38.3131,17.2994 C38.625,17.2994 38.8031,17.4772 38.8031,17.7885 L38.8031,19.5674 Z M38.8477,15.3426 L33.5908,15.3426 L33.5908,25.571 L35.6401,25.571 L35.6401,21.9689 L38.8477,21.9689 C40.0505,21.9689 40.8524,21.1239 40.8524,19.9676 L40.8524,17.3438 C40.8524,16.1876 40.006,15.3426 38.8477,15.3426 Z" id="Shape" fill-rule="nonzero"></path>
                <path d="M47.6684,23.2141 C47.6684,23.5254 47.4902,23.7032 47.1783,23.7032 L44.7726,23.7032 C44.4608,23.7032 44.2826,23.5254 44.2826,23.2141 L44.2826,17.6996 C44.2826,17.3883 44.4608,17.2104 44.7726,17.2104 L47.1783,17.2104 C47.4902,17.2104 47.6684,17.3883 47.6684,17.6996 L47.6684,23.2141 Z M47.7129,15.2982 L44.2826,15.2982 C43.0797,15.2982 42.2778,16.1431 42.2778,17.2994 L42.2778,23.6143 C42.2778,24.815 43.1243,25.6155 44.2826,25.6155 L47.7129,25.6155 C48.9158,25.6155 49.7176,24.7706 49.7176,23.6143 L49.7176,17.2994 C49.7176,16.0986 48.9158,15.2982 47.7129,15.2982 Z" id="Shape" fill-rule="nonzero"></path>
                <path d="M56.7564,15.2982 L53.5043,15.2982 C52.3014,15.2982 51.4995,16.1431 51.4995,17.2994 L51.4995,23.6143 C51.4995,24.815 52.346,25.6155 53.5043,25.6155 L56.7564,25.6155 C57.9592,25.6155 58.7611,24.7706 58.7611,23.6143 L58.7611,21.9689 L56.7118,21.9689 L56.7118,23.2141 C56.7118,23.5254 56.5336,23.7032 56.2218,23.7032 L53.9943,23.7032 C53.6825,23.7032 53.5043,23.5254 53.5043,23.2141 L53.5043,17.6996 C53.5043,17.3883 53.6825,17.2104 53.9943,17.2104 L56.2218,17.2104 C56.5336,17.2104 56.7118,17.3883 56.7118,17.6996 L56.7118,18.9448 L58.7611,18.9448 L58.7611,17.2994 C58.7611,16.0986 57.9592,15.2982 56.7564,15.2982 Z" id="Path"></path>
                <path d="M65.7554,15.2982 L62.5033,15.2982 C61.3004,15.2982 60.4985,16.1431 60.4985,17.2994 L60.4985,23.6143 C60.4985,24.815 61.345,25.6155 62.5033,25.6155 L65.7554,25.6155 C66.9583,25.6155 67.7602,24.7706 67.7602,23.6143 L67.7602,21.9689 L65.7109,21.9689 L65.7109,23.2141 C65.7109,23.5254 65.5327,23.7032 65.2208,23.7032 L62.9933,23.7032 C62.6815,23.7032 62.5033,23.5254 62.5033,23.2141 L62.5033,17.6996 C62.5033,17.3883 62.6815,17.2104 62.9933,17.2104 L65.2208,17.2104 C65.5327,17.2104 65.7109,17.3883 65.7109,17.6996 L65.7109,18.9448 L67.7602,18.9448 L67.7602,17.2994 C67.7602,16.0986 66.9583,15.2982 65.7554,15.2982 Z" id="Path"></path>
                <path d="M108.657,9.51687 C108.657,9.82817 108.479,10.0061 108.167,10.0061 L105.539,10.0061 L105.539,7.2933 L108.167,7.2933 C108.479,7.2933 108.657,7.47119 108.657,7.78249 L108.657,9.51687 Z M108.657,5.38103 L105.539,5.38103 L105.539,1.68991 L103.489,1.68991 L103.489,11.9183 L108.657,11.9183 C109.86,11.9183 110.662,11.0734 110.662,9.91711 L110.662,7.38225 C110.706,6.18152 109.86,5.38103 108.657,5.38103 Z" id="Shape" fill-rule="nonzero"></path>
                <polygon id="Path" points="114.092 1.68991 111.999 1.68991 111.999 11.9183 114.092 11.9183"></polygon>
                <polygon id="Path" points="85.0012 15.3426 81.0808 22.1023 81.0808 15.3426 79.1206 15.3426 79.1206 25.571 79.1652 25.571 81.0808 25.571 85.0012 18.8559 85.0012 25.571 87.0059 25.571 87.0059 15.3426"></polygon>
                <polygon id="Path" points="75.4675 15.3426 71.5471 22.1023 71.5471 15.3426 69.5869 15.3426 69.5869 25.571 71.5471 25.571 75.4675 18.8559 75.4675 25.571 77.4722 25.571 77.4722 15.3426 77.4277 15.3426"></polygon>
            </g>
            <g id="logo_DWY" transform="translate(145.000000, 119.000000)">
                <path d="M10.87884,0.1478568 C1.6635808,4.4439024 -5.072816,16.099216 5.0507072,22.188432 C12.846736,26.876752 25.08968,27.08216 34.418384,27.156864 C45.942176,27.231568 57.484896,26.409712 68.857376,24.952816 C77.10752,23.888144 85.490272,22.449952 93.040304,19.536048 C98.94416,17.257296 104.847904,13.42824 103.958624,7.768656 C103.220656,3.061688 95.765152,1.7728816 90.864256,1.08177888 C82.235552,-0.1509984 73.1528,0.09182152 64.448384,0.59613904 C56.576688,1.0444224 48.44,1.7728816 40.908784,3.67808 C39.69784,3.9769408 40.038432,5.0416128 41.268304,4.7240704 C52.754352,1.8289152 65.716224,1.2312048 77.713104,1.3619536 C85.490272,1.4553504 104.109936,1.4366688 101.82032,10.92532 C100.722832,15.501584 93.929696,18.135152 89.00976,19.760272 C84.846832,21.142464 80.419024,22.057616 75.991104,22.767472 C66.28384,24.33648 56.500976,25.326448 46.604544,25.793376 C35.232064,26.335008 22.762208,26.577824 11.9196,23.477216 C8.0972304,22.39384 4.3127392,20.526016 2.7610912,17.462816 C-0.3989664,11.1868176 5.4670112,3.9769408 12.203408,0.83895952 C13.376608,0.29728496 11.692464,-0.22571136 10.87884,0.1478568 Z" id="Path" fill="#FC0A41"></path>
                <path d="M68.554864,21.105056 C68.2332,21.17976 67.987136,21.254464 67.741184,21.310576 C66.927504,21.49728 66.24632,21.403984 65.830016,20.60072 C65.016336,19.01312 64.183728,17.444112 63.332304,15.837808 C63.426832,15.819104 63.370048,15.819104 63.313376,15.837808 C61.931968,16.491552 61.439952,17.500112 61.780656,18.882304 C61.856256,19.162528 61.799472,19.480048 61.780656,19.760272 C61.7428,20.54472 60.456032,21.347872 59.623424,21.086352 C58.67736,20.80624 58.94224,19.96568 58.923312,19.461344 C58.828672,16.342032 58.866528,13.204128 58.866528,10.066112 C58.866528,9.9166816 58.885456,9.7859328 58.904384,9.4310496 C59.680208,9.58048 60.418176,9.6738656 61.09936,9.8793296 C61.591376,10.02876 61.837328,10.3276096 61.799472,10.92532 C61.704944,12.195456 61.761728,13.465536 61.761728,14.922544 C62.253632,14.3808 65.338,11.560416 65.716448,9.9540448 L68.422368,9.9540448 C67.741184,10.887968 67.343808,11.859232 66.586912,12.400976 C65.110976,13.465536 65.79216,14.548912 66.265248,15.650992 C66.984288,17.350704 67.77904,19.050416 68.517008,20.750128 C68.59272,20.824944 68.554864,20.955648 68.554864,21.105056 Z" id="Path" fill="#FEFEFE"></path>
                <path d="M32.924192,16.43544 C33.189072,15.706992 33.435024,15.146656 33.586448,14.567616 C33.889184,13.42824 34.11632,12.27016 34.437984,11.1307728 C34.55144,10.7385264 34.74072,10.3462688 34.986672,10.0100672 C35.270592,9.6178096 35.630112,9.6551728 35.970704,9.972704 C36.27344,10.2528832 36.614032,10.4956992 36.935696,10.7385264 C36.82224,11.242784 36.7276,11.877936 36.557248,12.494272 C36.122016,13.932576 35.762496,15.408176 35.157024,16.771664 C34.702864,17.798928 34.19192,18.770304 33.945968,19.872272 C33.908112,20.02168 33.700016,20.208496 33.548592,20.2272 C32.84848,20.301904 32.12944,20.3392 31.429328,20.320608 C31.277904,20.320608 31.107552,19.984384 31.031952,19.76016 C30.653504,18.714192 30.3128,17.668224 29.95328,16.622256 C29.896608,16.472848 29.820896,16.342032 29.707328,16.099216 C29.499232,16.528848 29.309952,16.865072 29.158528,17.219888 C28.855792,17.929744 28.571984,18.639488 28.288176,19.33064 C27.947584,20.133792 27.114976,20.3392 26.452608,20.712832 C26.130944,20.899648 25.657968,20.470016 25.563328,20.002976 C25.165952,18.041744 24.82536,16.06192 24.390128,14.11928 C24.125248,12.867904 23.7468,11.653712 23.443952,10.420984 C23.406096,10.2715648 23.481808,10.0100672 23.595376,9.9166704 C24.598224,9.1321776 25.979632,9.5431056 26.320224,10.7571968 C26.81224,12.438272 27.285216,14.11928 27.758304,15.819104 C27.815088,16.005808 27.815088,16.211328 27.852944,16.416736 C27.909728,16.43544 27.947584,16.43544 28.004256,16.454144 C28.269248,15.744288 28.553056,15.034544 28.817936,14.306096 C29.177456,13.260128 29.707328,12.867904 30.804816,12.8492 C31.353616,12.8492 31.732064,13.017312 31.902304,13.633648 C32.167296,14.511616 32.545744,15.389472 32.924192,16.43544 Z" id="Path" fill="#FEFEFE"></path>
                <path d="M76.161792,15.352064 C75.764416,14.156688 75.36704,12.961312 74.931808,11.69112 C74.931808,12.21416 74.81824,12.625088 74.780384,13.036016 C74.74264,13.465536 74.629072,13.895168 74.591216,14.3248 C74.55336,14.717024 74.45872,15.090656 74.45872,15.501584 C74.875024,15.501584 76.653808,15.501584 76.237504,15.501584 C76.199648,15.48288 76.256432,15.48288 76.161792,15.352064 Z M74.364192,10.1781792 C74.19384,9.7298992 74.401936,9.5617984 74.74264,9.5431168 C75.575136,9.4870832 76.313104,9.860648 76.937616,10.3836432 C77.202496,10.6077888 77.221424,11.130784 77.372848,11.504304 C77.959392,12.923904 78.602832,14.3248 79.113664,15.762992 C79.60568,17.182592 79.984128,18.639488 80.400432,20.077792 C80.514,20.470016 80.362576,20.694128 79.9652,20.656832 C79.435328,20.60072 78.962352,20.731536 78.489264,21.011648 C78.186528,21.198464 77.637728,20.768832 77.543088,20.320608 C77.429632,19.816272 77.278208,19.33064 77.202496,18.8076 C77.126784,18.17256 76.80512,17.985744 76.256432,18.023152 C75.707632,18.060448 75.026448,18.060448 74.496576,18.023152 C74.174912,18.004448 74.061344,18.17256 74.023488,18.49008 C73.92896,19.12512 73.966816,19.760272 73.758608,20.357904 C73.682896,20.582128 73.38016,20.768832 73.153136,20.899648 C72.850288,21.049056 72.509696,21.142464 72.169104,21.217168 C71.904224,21.273168 71.544704,21.38528 71.39328,21.235872 C71.147328,21.011648 70.920304,20.638128 70.901376,20.301904 C70.86352,19.797568 70.995904,19.27464 71.052688,18.7516 C71.166256,17.817632 71.166256,17.817632 70.333648,17.780336 C69.198304,17.724224 68.441408,16.454144 68.819856,15.314768 C69.576752,15.314768 70.31472,15.314768 71.052688,15.314768 C71.450064,15.314768 71.6772,15.146656 71.7528,14.661024 C71.998864,13.185424 72.263744,11.728528 72.547552,10.271576 C72.717904,9.412368 73.247664,9.2442672 73.92896,9.7672624 C74.080272,9.9166816 74.231696,10.0474304 74.364192,10.1781792 Z" id="Shape" fill="#FEFEFE" fill-rule="nonzero"></path>
                <path d="M51.013872,15.240064 C51.411248,15.053248 51.638272,14.941136 51.865296,14.847728 C52.792544,14.455504 53.303488,13.558944 53.170992,12.53168 C53.038496,11.485712 52.433024,10.9066272 51.316608,10.79456 C51.051616,10.7758784 50.786736,10.7385152 50.521856,10.7198448 C50.57864,11.336192 50.65424,11.933936 50.673168,12.512976 C50.74888,14.885136 50.84352,17.238592 50.862448,19.610752 C50.881376,20.563424 50.616496,20.694128 49.689248,20.526016 C49.443296,20.48872 49.178304,20.470016 48.95128,20.54472 C48.23224,20.768832 47.740224,20.395312 47.759152,19.629456 C47.815936,16.95848 47.891648,14.2688 47.910576,11.597712 C47.910576,11.0000128 48.04296,10.3089168 47.380704,9.8979888 C47.380704,9.8419552 47.380704,9.7859216 47.399632,9.7112064 C47.797008,9.6364912 48.175456,9.4683904 48.553904,9.5057424 C49.783888,9.5991392 51.013872,9.7112064 52.224816,9.9166704 C53.681936,10.178168 54.968592,10.7758784 55.8012,12.139456 C56.558096,13.372128 56.312144,15.183952 55.044304,16.043216 C54.968592,16.099216 54.89288,16.155216 54.779424,16.230032 C55.744416,17.817632 56.70952,19.38664 57.636656,20.974352 C57.712368,21.086352 57.731296,21.366576 57.69344,21.38528 C57.447488,21.515984 57.144752,21.7028 56.898688,21.665392 C55.460608,21.347872 54.154912,20.787536 53.587296,19.199824 C53.473728,18.901008 53.303488,18.620784 53.152064,18.340672 C52.622192,17.238592 52.205888,16.06192 51.013872,15.240064 Z" id="Path" fill="#FEFEFE"></path>
                <path d="M17.97488,13.596352 C18.939872,13.596352 19.791408,13.521648 20.624016,13.615056 C21.626864,13.74576 22.11888,14.978544 21.551264,15.819104 C21.475552,15.912512 21.248416,15.949808 21.097104,15.949808 C20.169856,15.931104 19.24272,15.875104 18.23976,15.837808 C18.296544,16.659664 18.315472,17.425408 18.391184,18.191264 C18.391184,18.284672 18.637136,18.415376 18.769632,18.43408 C19.848192,18.49008 20.94568,18.527488 22.02424,18.564784 C22.402688,18.583488 22.800064,18.602192 23.178512,18.658192 C23.74624,18.7516 23.859808,19.12512 23.55696,19.610864 C23.38672,19.872272 23.311008,20.189792 23.140656,20.432608 C23.008272,20.60072 22.762208,20.768832 22.57304,20.768832 C21.835072,20.768832 21.116032,20.656832 20.378064,20.638128 C19.072368,20.582128 17.766672,20.563424 16.461088,20.54472 C15.89336,20.54472 15.704192,20.2272 15.647408,19.536048 C15.53384,17.668224 15.3636,15.8004 15.231104,13.913872 C15.136464,12.625088 15.060752,11.336304 15.07968,10.0474416 C15.07968,9.785944 15.62848,9.337664 15.931216,9.3189824 C17.501792,9.2816304 19.091296,9.3563456 20.661872,9.3936976 C21.910784,9.4310608 22.535184,10.3089392 22.156736,11.467008 C22.11888,11.597712 21.75936,11.709824 21.551264,11.69112 C20.49152,11.672416 19.431888,11.63512 18.353328,11.57912 C17.937024,11.560416 17.728816,11.63512 17.804528,12.120752 C17.918096,12.606384 17.937024,13.092016 17.97488,13.596352 Z" id="Path" fill="#FEFEFE"></path>
                <path d="M9.1004704,10.9813312 C9.1004704,11.0000128 8.0786496,10.7945488 8.021888,11.541712 C7.9840432,11.989936 7.9272704,12.456976 7.9272704,12.9052 C7.9272704,14.287392 7.9461984,15.669584 7.9651152,17.07048 C7.9840432,17.873632 8.0975776,17.985744 8.9112352,17.948448 C9.2896944,17.929744 9.6870592,17.873632 10.0655072,17.85504 C11.42792,17.780336 12.184816,17.089184 12.60112,15.875104 C12.866,15.090544 12.657904,14.175392 12.487552,13.390832 C12.279456,12.438272 11.52256,10.9439792 9.1004704,10.9813312 Z M5.1835056,9.6925248 C5.1835056,9.561776 5.315968,9.356312 5.4295024,9.3189488 C7.227136,8.7212384 10.4439664,8.702568 11.88208,10.2902352 C13.074208,11.597712 13.698608,13.16672 13.906816,14.885136 C14.077056,16.155216 13.925744,17.425408 13.282304,18.602192 C12.69576,19.666864 11.88208,20.3392 10.5953456,20.376608 C9.8762832,20.395312 9.1383152,20.507312 8.4192528,20.60072 C7.7948192,20.675424 7.3595984,20.451312 7.0000672,19.928272 C6.8865328,19.741568 6.5459296,19.610752 6.3188608,19.592048 C5.6187264,19.554752 5.334896,19.33064 5.29704,18.695488 C5.2402784,16.659552 5.1645888,10.6638 5.1835056,9.6925248 Z" id="Shape" fill="#FEFEFE" fill-rule="nonzero"></path>
                <path d="M83.390048,10.6077888 C83.390048,10.8692864 83.352192,11.0934208 83.390048,11.280192 C83.654928,12.456976 83.957664,13.633648 84.241584,14.810432 C84.487536,15.875104 84.752416,16.921072 84.960624,18.004448 C85.130864,18.845008 85.641808,19.33064 86.493344,19.666864 C86.587984,19.293232 86.720368,18.975712 86.739296,18.639488 C86.79608,17.929744 87.590832,17.724224 88.23416,17.836336 C88.726176,17.929744 88.801888,18.22856 88.707248,18.975712 C88.517968,20.376608 87.912496,20.675424 86.720368,20.992944 C85.490384,21.329168 84.336112,21.12376 83.18184,20.694128 C82.349344,20.395312 81.895184,19.778864 81.724832,18.994416 C81.232816,16.902368 81.100432,14.773024 81.214,12.625088 C81.251744,11.859232 81.403168,11.1121024 81.970896,10.514392 C83.049456,9.3750048 84.336112,9.3563344 85.71752,9.7298992 C86.114896,9.8419664 86.493344,10.0100784 86.89072,10.1221456 C87.628688,10.3462912 87.931424,10.9066384 88.026064,11.597712 C88.120704,12.232864 86.966432,13.42824 86.360848,13.297424 C85.830976,13.185424 85.641808,12.718496 85.52824,12.232864 C85.433712,11.784528 85.52824,11.1868176 85.26336,10.9440016 C84.99848,10.682504 84.430752,10.757208 83.976592,10.7011744 C83.82528,10.6264592 83.636,10.6264592 83.390048,10.6077888 Z" id="Path" fill="#FEFEFE"></path>
                <path d="M93.078272,13.017312 C93.570288,12.158048 94.00552,11.4296 94.440752,10.7011744 C94.781344,10.1594976 95.140864,9.6178208 95.840976,9.4123568 C96.105856,9.3376416 96.408592,9.3936752 96.692512,9.3936752 C96.673584,9.6365024 96.730368,9.9166704 96.635728,10.140816 C96.011328,11.653824 95.330032,13.148016 94.72456,14.679728 C94.573136,15.071952 94.667776,16.155328 94.686704,16.603552 C94.72456,17.59352 94.781344,18.564784 94.800272,19.554752 C94.800272,19.70416 94.667776,19.90968 94.53528,19.984384 C94.043376,20.301904 93.532432,20.619424 93.00256,20.880944 C92.5484,21.105056 92.11328,20.824832 92.056496,20.2272 C91.999712,19.554752 91.942928,18.901008 91.999712,18.22856 C92.132208,16.715664 91.488768,14.829136 90.731872,13.577648 C89.974976,12.363568 89.274864,11.1120912 88.536896,9.8793184 C89.40736,9.1321776 91.053536,9.4123568 91.602336,10.4023136 C91.82936,10.8319232 92.094352,11.242896 92.340304,11.672416 C92.567328,12.083344 92.794464,12.494272 93.078272,13.017312 Z" id="Path" fill="#FEFEFE"></path>
                <path d="M42.498624,10.3463024 C41.211968,10.5330848 40.909232,10.8506272 40.909232,12.046048 C40.909232,12.662384 40.92816,14.231392 40.946976,14.399504 C40.965904,14.997248 41.022688,15.594992 41.022688,16.192624 C41.041616,16.921072 41.022688,17.649632 41.022688,18.37808 C41.022688,18.7516 41.00376,19.143824 41.325424,19.480048 C41.836368,19.536048 42.347312,19.741568 42.914928,19.498752 C43.028496,18.060448 42.896,11.57912 42.782544,10.8319456 C42.744688,10.6451632 42.593264,10.4957328 42.498624,10.3463024 Z M45.639776,16.136624 C45.639776,17.238704 45.639776,18.340672 45.639776,19.461344 C45.639776,19.778864 45.469536,20.003088 45.1668,20.115088 C44.958592,20.189792 44.750496,20.245904 44.52336,20.301904 C44.409792,20.339312 44.239552,20.320608 44.16384,20.395312 C43.671824,20.824944 43.104208,20.768832 42.517552,20.694128 C42.00672,20.638128 41.495776,20.619424 40.984832,20.54472 C40.246864,20.432608 39.584608,20.077792 38.960208,19.70416 C38.619616,19.517456 38.373552,19.218528 38.316768,18.8076 C38.278912,18.527488 38.203312,18.247264 38.203312,17.967152 C38.165456,16.099216 38.146528,14.231392 38.1276,12.363568 C38.1276,11.95264 38.146528,11.541712 38.22224,11.1307952 C38.39248,10.1408384 39.168304,9.4310608 40.19008,9.3563456 C40.568528,9.3189936 40.965904,9.3376752 41.344352,9.3563456 C41.987792,9.3937088 42.612192,9.5244576 43.25552,9.5244576 C44.390976,9.5244576 45.412752,10.4396992 45.52632,11.784528 C45.620848,12.961312 45.620848,14.119392 45.620848,15.296064 C45.639776,15.557584 45.639776,15.8564 45.639776,16.136624 Z" id="Shape" fill="#FEFEFE" fill-rule="nonzero"></path>
            </g>
            <g id="offer_logo" fill="#8D0D1A">
                <path d="M54.8206,88.2231 C31.8953,88.2231 13.2614,69.5365 13.2614,46.5464 C13.2614,30.8044 21.9572,17.101 34.7186,10.0794 L31.2177,3.7373 C13.2614,10.9854 0.5,28.6527 0.5,49.3777 C0.5,76.6714 22.5219,98.7555 49.7386,98.7555 C60.4672,98.7555 70.2924,95.3579 78.4235,89.4688 L74.8097,83.0135 C68.9372,86.2978 62.0483,88.2231 54.8206,88.2231 Z" id="Path"></path>
                <path d="M54.8205,4.75657 C63.2905,4.75657 71.1958,7.36136 77.7459,11.6649 L78.9881,9.62639 C70.857,3.62405 60.693,0 49.7386,0 C45.5601,0 41.4945,0.566258 37.6548,1.47227 L40.8169,7.13486 C45.2213,5.66259 49.8515,4.75657 54.8205,4.75657 Z" id="Path"></path>
                <path d="M54.2561,52.3223 C53.3526,51.756 52.3362,51.303 51.094,50.9633 C49.8517,50.6235 48.4965,50.2838 46.9155,49.7175 C45.4473,49.2645 44.0922,48.6982 42.737,48.0187 C41.4947,47.4525 40.3654,46.4332 39.5748,45.1874 C38.6714,43.9417 38.3326,42.4694 38.3326,40.6574 C38.3326,38.0526 39.4619,35.9008 41.6076,34.0888 C43.8663,32.2767 46.6896,31.2575 50.1905,31.2575 C55.3854,31.2575 59.451,33.1827 62.2743,36.9201 L57.6441,41.3369 C55.3854,38.8453 52.788,37.5996 49.8517,37.5996 C46.8025,37.5996 45.2215,38.6188 45.2215,40.5441 C45.2215,41.3369 45.6732,41.9031 46.4637,42.3561 C47.3672,42.8091 48.3836,43.2622 49.6259,43.4887 C50.8681,43.7152 52.2233,44.1682 53.8044,44.6212 C55.2725,45.0742 56.6277,45.6404 57.9829,46.3199 C59.3381,46.9995 60.3545,47.9055 61.145,49.1512 C61.9355,50.397 62.3872,51.8693 62.3872,53.6813 C62.3872,56.5126 61.2579,58.7776 58.9993,60.7029 C56.7406,62.6282 54.0302,63.5342 50.6422,63.5342 C47.1413,63.5342 44.2051,62.8547 41.7206,61.3824 C39.2361,60.0234 37.5421,58.2114 36.2998,55.9463 L41.2688,51.756 C42.2852,53.4548 43.6404,54.7006 45.2215,55.6066 C46.8025,56.5126 48.4965,56.9656 50.4164,56.9656 C51.9974,56.9656 53.2397,56.7391 54.0302,56.1728 C54.8208,55.6066 55.2725,54.9271 55.2725,54.1343 C55.4983,53.5681 55.1596,52.8885 54.2561,52.3223 Z" id="Path"></path>
                <polygon id="Path" points="66.7916 32.0502 73.5676 32.0502 73.5676 44.0549 85.4255 32.0502 94.3472 32.0502 80.9082 45.7537 95.1377 62.968 86.1031 62.968 75.7133 50.2838 73.4547 52.5488 73.4547 62.968 66.6787 62.968 66.6787 32.0502"></polygon>
                <polygon id="Path" points="113.546 51.8693 113.546 62.968 106.77 62.968 106.77 51.8693 94.3472 32.0502 102.478 32.0502 110.271 44.3947 118.176 32.0502 126.081 32.0502"></polygon>
                <path d="M126.194,56.7391 C126.985,55.9463 128.001,55.6066 129.131,55.6066 C130.26,55.6066 131.163,55.9463 131.954,56.7391 C132.744,57.5319 133.196,58.4379 133.196,59.3439 C133.196,60.3632 132.744,61.2692 131.954,62.0619 C131.163,62.8547 130.26,63.1945 129.131,63.1945 C127.888,63.1945 126.985,62.8547 126.194,62.0619 C125.404,61.2692 125.065,60.3632 125.065,59.3439 C125.065,58.4379 125.404,57.5319 126.194,56.7391 Z" id="Path"></path>
                <polygon id="Path" points="132.518 32.0502 159.17 32.0502 159.17 38.5056 149.232 38.5056 149.232 62.968 142.456 62.968 142.456 38.3923 132.631 38.3923 132.631 32.0502"></polygon>
                <polygon id="Path" points="161.994 32.0502 185.597 32.0502 185.597 38.5056 168.77 38.5056 168.77 44.1682 184.354 44.1682 184.354 50.397 168.77 50.397 168.77 56.6259 185.935 56.6259 185.935 63.0812 161.994 63.0812"></polygon>
                <path d="M217.895,57.0789 C216.54,59.1174 214.62,60.7029 212.361,61.8354 C210.103,62.9679 207.505,63.5342 204.795,63.5342 C200.052,63.5342 196.212,62.0619 193.276,59.1174 C190.34,56.1728 188.984,52.3223 188.984,47.5657 C188.984,43.0356 190.453,39.2983 193.389,36.2405 C196.325,33.1827 200.165,31.5972 204.908,31.5972 C207.618,31.5972 210.103,32.1635 212.361,33.1827 C214.62,34.202 216.201,35.6743 217.33,37.4863 L212.7,41.6766 C211.797,40.5441 210.667,39.7513 209.312,39.0718 C207.957,38.5056 206.602,38.1658 205.36,38.1658 C202.536,38.1658 200.278,38.9586 198.584,40.6574 C196.89,42.3561 195.986,44.6212 195.986,47.4525 C195.986,50.1705 196.89,52.4355 198.584,54.2476 C200.278,56.0596 202.536,56.8524 205.247,56.8524 C208.748,56.8524 211.571,55.4933 213.717,52.7753 L217.895,57.0789 Z" id="Path"></path>
                <polygon id="Path" points="241.724 50.6235 228.059 50.6235 228.059 62.968 221.283 62.968 221.283 32.0502 228.059 32.0502 228.059 44.1682 241.724 44.1682 241.724 32.0502 248.5 32.0502 248.5 62.968 241.724 62.968"></polygon>
            </g>
        </g>
    </g>
</svg>